<?xml version="1.0" encoding="UTF-8"?>
<svg xmlns="http://www.w3.org/2000/svg" xmlns:i="http://ns.adobe.com/AdobeIllustrator/10.0/" id="Layer_1" version="1.1" viewBox="0 0 580 198">
  <defs>
    <style>
      .st0 {
        stroke-width: 2.4px;
      }

      .st0, .st1, .st2 {
        fill: #fff;
        stroke: #fff;
        stroke-miterlimit: 10;
      }

      .st2 {
        stroke-width: 4.3px;
      }
    </style>
  </defs>
  <path class="st1" d="M91.4,111.4h-6.4v-14.6h6.4v14.6h0ZM75.4,111.4h-6.5v-14.6h6.5v14.6ZM75.4,75v11.1h-16.1v36.2h16.1v11.1h9.6v-11.1h16.1v-36.2h-16.1v-11.1s-9.6,0-9.6,0ZM79.6,140.1c-16.6,0-30.4-13.8-32.8-31.8H3.3v16.3c21.1,3.8,40,15,54.5,31.2h43.6c14.5-16.2,33.4-27.4,54.5-31.2v-16.3h-43.5c-2.3,18-16.1,31.8-32.8,31.8M101.3,50h-43.6c-14.5,16.2-33.4,27.4-54.5,31.2v16.3h43.5c2.3-17.9,16.1-31.8,32.8-31.8s30.4,13.8,32.8,31.8h43.5v-16.3c-21.1-3.7-40-15-54.5-31.2"></path>
  <g>
    <g>
      <path class="st0" d="M180.5,131.4h-2.8v-1.7h11.9c5.2,0,9,3.2,9,8.5s-3.8,8.7-9,8.7h-7.4v12.1h-1.8v-27.6ZM189.6,145.3c4.3,0,7.1-2.5,7.1-7s-2.8-6.8-7.1-6.8h-7.3v13.8h7.3Z"></path>
      <path class="st0" d="M207.5,140.6c0-.6-.4-.9-1-.9h-1.8v-1.6h2.1c1.7,0,2.4.7,2.4,2.3v1.5c0,.9,0,1.7,0,1.7h0c1-3.2,3.3-5.6,6.6-5.6s1.3.1,1.3.1v1.8s-.5,0-1,0c-3.3,0-5.3,2.8-6.2,5.9-.5,1.4-.6,3-.6,4.4v9h-1.7v-18.5Z"></path>
      <path class="st0" d="M233.9,137.7c6,0,10.9,4.7,10.9,10.8s-4.9,11.1-10.9,11.1-10.8-4.9-10.8-11.1,4.9-10.8,10.8-10.8M233.9,157.9c5,0,9-4.1,9-9.4s-4-9.1-9-9.1-9,3.9-9,9.1,4,9.4,9,9.4"></path>
      <path class="st0" d="M253.5,140.6c0-.6-.3-.9-.9-.9h-1.8v-1.6h2c1.8,0,2.4.7,2.4,2.3v10.4c0,3.7.5,7.1,5.2,7.1s8.6-4.6,8.6-9.5v-10.3h1.7v18.5c0,.6.3.9.9.9h1.8v1.6h-2c-1.8,0-2.4-.7-2.4-2.3v-1.1c0-.9,0-1.7,0-1.7h0c-.7,1.9-3.6,5.7-8.6,5.7s-6.9-2.9-6.9-8.2v-10.8Z"></path>
      <path class="st0" d="M288.8,137.7c5.3,0,7.2,4.5,7.2,4.5h0s0-.8,0-1.7v-8.2c0-.6-.3-.9-.9-.9h-1.8v-1.6h2c1.8,0,2.4.7,2.4,2.4v24.4c0,.6.4.9,1,.9h1.8v1.6h-2.1c-1.7,0-2.4-.7-2.4-2.4s0-1.6,0-1.6h0s-1.7,4.6-7.5,4.6-9-4.5-9-11,3.8-10.9,9.3-10.9M296,148.6c0-4.7-2.4-9.2-7.3-9.2s-7.4,3.4-7.4,9.2,3,9.3,7.3,9.3,7.4-2.8,7.4-9.3"></path>
      <path class="st0" d="M329.5,154.2s3,3.6,7.8,3.6,6.5-2.5,6.5-6c0-8.2-14.7-6.3-14.7-15.4s3.3-7.2,8.6-7.2,7.5,1,7.5,4.7v1.8h-1.8v-1.4c0-1.9-2.7-3.3-5.7-3.3-4.4,0-6.8,2.6-6.8,5.4,0,7.6,14.8,5.7,14.8,15.4s-3.3,7.9-8.5,7.9-8.9-4-8.9-4l1.2-1.4Z"></path>
      <path class="st0" d="M354.6,140.6c0-.6-.4-.9-.9-.9h-1.9v-1.6h2.1c1.7,0,2.4.7,2.4,2.3v10.4c0,3.7.5,7.1,5.1,7.1s8.6-4.6,8.6-9.5v-10.3h1.7v18.5c0,.6.4.9,1,.9h1.8v1.6h-2.1c-1.7,0-2.4-.7-2.4-2.3v-1.1c0-.9,0-1.7,0-1.7h0c-.7,1.9-3.5,5.7-8.6,5.7s-6.9-2.9-6.9-8.2v-10.8Z"></path>
      <path class="st0" d="M383.3,140.6c0-.6-.3-.9-.9-.9h-1.8v-1.6h2.1c1.7,0,2.4.7,2.4,2.3s0,1.7,0,1.7h0s1.6-4.4,7.4-4.4,9,4.4,9,10.9-3.9,11-9.2,11-7.2-4.6-7.2-4.6h-.2s.2.8.2,1.9v10.6h-1.8v-26.9ZM392.4,157.9c4.1,0,7.4-3.4,7.4-9.3s-3-9.2-7.3-9.2-7.4,2.7-7.4,9.3,2.5,9.3,7.3,9.3"></path>
      <path class="st0" d="M410.4,140.6c0-.6-.3-.9-.9-.9h-1.8v-1.6h2c1.7,0,2.4.7,2.4,2.3s0,1.7,0,1.7h0s1.6-4.4,7.5-4.4,9,4.4,9,10.9-3.9,11-9.3,11-7.2-4.6-7.2-4.6h0s0,.8,0,1.9v10.6h-1.7v-26.9ZM419.3,157.9c4.1,0,7.5-3.4,7.5-9.3s-3-9.2-7.4-9.2-7.4,2.7-7.4,9.3,2.5,9.3,7.3,9.3"></path>
      <path class="st0" d="M445.6,137.7c5.9,0,10.8,4.7,10.8,10.8s-4.9,11.1-10.8,11.1-10.9-4.9-10.9-11.1,4.9-10.8,10.9-10.8M445.6,157.9c5,0,9-4.1,9-9.4s-4-9.1-9-9.1-9,3.9-9,9.1,4,9.4,9,9.4"></path>
      <path class="st0" d="M465.1,140.6c0-.6-.3-.9-.9-.9h-1.8v-1.6h2c1.7,0,2.4.7,2.4,2.3v1.5c0,.9,0,1.7,0,1.7h0c1.1-3.2,3.3-5.6,6.7-5.6s1.2.1,1.2.1v1.8s-.5,0-.9,0c-3.3,0-5.4,2.8-6.3,5.9-.5,1.4-.7,3-.7,4.4v9h-1.7v-18.5Z"></path>
      <path class="st0" d="M483.6,139.7h-2.8v-1.6h2.8v-5.8h1.7v5.8h5.5v1.6h-5.5v11.7c0,5.5,3.3,6.2,5,6.2s1,0,1,0v1.6s-.5.2-1.1.2c-2.1,0-6.6-.8-6.6-7.8v-11.8Z"></path>
      <path class="st0" d="M507.6,137.7c5.7,0,8.5,4.4,8.5,9.5s0,1.2,0,1.2h-16.8c0,6,4.1,9.6,9,9.6s6.5-2.6,6.5-2.6l.9,1.4s-3,2.9-7.4,2.9-10.8-4.3-10.8-11,4.8-11,10.2-11M514.2,146.7c-.2-5.2-3.3-7.4-6.7-7.4s-7.5,2.5-8.1,7.4h14.8Z"></path>
      <path class="st0" d="M524.9,140.6c0-.6-.4-.9-1-.9h-1.8v-1.6h2.1c1.7,0,2.4.7,2.4,2.3v1.5c0,.9,0,1.7,0,1.7h0c1-3.2,3.3-5.6,6.6-5.6s1.3.1,1.3.1v1.8s-.5,0-1,0c-3.3,0-5.3,2.8-6.2,5.9-.5,1.4-.7,3-.7,4.4v9h-1.7v-18.5Z"></path>
    </g>
    <line class="st2" x1="177.7" y1="104.8" x2="576.7" y2="104.8"></line>
    <g>
      <path class="st1" d="M209.2,40.1s-10-1.1-14.1-1.1-7.7,1.9-7.7,5.1,1.9,4.1,10,6.7c10.4,3.3,13.5,6.2,13.5,14.2s-7.1,15.3-16.6,15.3-16-2.2-16-2.2l1-7.6s9.5,1.3,14.5,1.3,7.5-2.5,7.5-6.2-1.7-4.3-8.6-6.3c-10.8-3.1-14.9-6.8-14.9-14.5s6.6-14.3,16.4-14.3,15.8,1.9,15.8,1.9l-.8,7.7Z"></path>
      <rect class="st1" x="217.5" y="67.7" width="10.2" height="11.8"></rect>
      <path class="st1" d="M254.1,71.8c5.7,0,8.6-2.7,8.6-8.4V31.4h9.7v31.8c0,12-6.3,17.1-18.3,17.1s-18.3-5.1-18.3-17.1v-31.8h9.7v32.1c0,5.7,2.8,8.4,8.6,8.4"></path>
      <rect class="st1" x="280.5" y="67.7" width="10.2" height="11.8"></rect>
      <path class="st1" d="M330.4,78.7c-3.2.7-9.6,1.6-14,1.6-14.8,0-18.4-8.1-18.4-24.9s4.1-24.9,18.4-24.9,11.1,1.2,14.1,1.9l-.3,7.8c-3.2-.5-9.2-1.1-12.4-1.1-7.4,0-9.7,2.6-9.7,16.3s1.7,16.3,10,16.3,9.2-.6,12.1-1l.2,8Z"></path>
      <rect class="st1" x="337" y="67.7" width="10.2" height="11.8"></rect>
      <path class="st1" d="M386.8,78.7c-3.2.7-9.6,1.6-14,1.6-14.8,0-18.4-8.1-18.4-24.9s4.1-24.9,18.4-24.9,11.1,1.2,14.1,1.9l-.3,7.8c-3.2-.5-9.2-1.1-12.4-1.1-7.4,0-9.7,2.6-9.7,16.3s1.7,16.3,10,16.3,9.3-.6,12.1-1c0,0,.2,8,.2,8Z"></path>
      <rect class="st1" x="393.5" y="67.7" width="10.2" height="11.8"></rect>
      <polygon class="st1" points="412.8 31.4 412.8 79.5 443.9 79.5 443.9 71 422.6 71 422.6 59.4 439.7 59.4 439.7 51.1 422.6 51.1 422.6 39.9 443.9 39.9 443.9 31.4 412.8 31.4"></polygon>
      <rect class="st1" x="450.7" y="67.7" width="10.2" height="11.8"></rect>
      <path class="st1" d="M498.9,40.1s-10-1.1-14.1-1.1-7.7,1.9-7.7,5.1,1.9,4.1,10,6.7c10.4,3.3,13.6,6.2,13.6,14.2s-7.1,15.3-16.6,15.3-16.1-2.2-16.1-2.2l1-7.6s9.5,1.3,14.5,1.3,7.5-2.5,7.5-6.2-1.7-4.3-8.6-6.3c-10.8-3.1-14.9-6.8-14.9-14.5s6.6-14.3,16.4-14.3,15.8,1.9,15.8,1.9l-.8,7.7h0Z"></path>
      <rect class="st1" x="507.2" y="67.7" width="10.2" height="11.8"></rect>
      <path class="st1" d="M555.4,40.1s-10-1.1-14.1-1.1-7.7,1.9-7.7,5.1,1.9,4.1,10,6.7c10.4,3.3,13.6,6.2,13.6,14.2s-7.1,15.3-16.6,15.3-16-2.2-16-2.2l1-7.6s9.5,1.3,14.5,1.3,7.5-2.5,7.5-6.2-1.7-4.3-8.6-6.3c-10.8-3.1-14.9-6.8-14.9-14.5s6.6-14.3,16.4-14.3,15.8,1.9,15.8,1.9l-.8,7.7h0Z"></path>
      <rect class="st1" x="563.8" y="67.7" width="10.2" height="11.8"></rect>
    </g>
  </g>
  <metadata></metadata>
</svg>
